<svg xmlns="http://www.w3.org/2000/svg" xmlns:xlink="http://www.w3.org/1999/xlink" width="500" zoomAndPan="magnify" viewBox="0 0 375 374.999991" height="500" preserveAspectRatio="xMidYMid meet" version="1.0"><defs><g/><clipPath id="175e7cceb9"><path d="M 32.519531 27.535156 L 342.269531 27.535156 L 342.269531 347.785156 L 32.519531 347.785156 Z M 32.519531 27.535156 " clip-rule="nonzero"/></clipPath><clipPath id="cfbc63ec44"><path d="M 122 159.523438 L 239.738281 159.523438 L 239.738281 280 L 122 280 Z M 122 159.523438 " clip-rule="nonzero"/></clipPath><clipPath id="a42f65bd69"><path d="M 185 124 L 263 124 L 263 201 L 185 201 Z M 185 124 " clip-rule="nonzero"/></clipPath><clipPath id="968a3ceae2"><path d="M 184.792969 144.300781 L 261.605469 123.808594 L 279.390625 190.476562 L 202.578125 210.96875 Z M 184.792969 144.300781 " clip-rule="nonzero"/></clipPath><clipPath id="3a8e912c34"><path d="M 184.792969 144.300781 L 261.605469 123.808594 L 279.390625 190.476562 L 202.578125 210.96875 Z M 184.792969 144.300781 " clip-rule="nonzero"/></clipPath><clipPath id="a117d6110f"><path d="M 184.792969 144.300781 L 261.605469 123.808594 L 279.390625 190.476562 L 202.578125 210.96875 Z M 184.792969 144.300781 " clip-rule="nonzero"/></clipPath></defs><g clip-path="url(#175e7cceb9)"><path fill="#d8ebff" d="M 187.394531 27.535156 C 101.859375 27.535156 32.519531 99.226562 32.519531 187.660156 C 32.519531 276.097656 101.859375 347.785156 187.394531 347.785156 C 272.925781 347.785156 342.265625 276.097656 342.265625 187.660156 C 342.265625 99.226562 272.925781 27.535156 187.394531 27.535156 " fill-opacity="1" fill-rule="nonzero"/></g><g clip-path="url(#cfbc63ec44)"><path fill="#000000" d="M 235.089844 224.359375 L 233.03125 224.359375 L 233.03125 209.292969 C 233.03125 208.988281 233 208.6875 232.941406 208.386719 C 232.882812 208.089844 232.792969 207.796875 232.675781 207.515625 C 232.558594 207.234375 232.417969 206.96875 232.246094 206.714844 C 232.078125 206.460938 231.882812 206.226562 231.667969 206.011719 C 231.453125 205.792969 231.21875 205.601562 230.964844 205.433594 C 230.710938 205.261719 230.441406 205.121094 230.160156 205.003906 C 229.878906 204.886719 229.589844 204.796875 229.289062 204.738281 C 228.988281 204.679688 228.6875 204.648438 228.382812 204.648438 L 224.246094 204.648438 L 224.246094 186.6875 C 224.253906 186.160156 224.070312 185.707031 223.703125 185.328125 L 199.363281 160.554688 C 198.976562 160.117188 198.492188 159.894531 197.90625 159.886719 L 138.226562 159.886719 C 137.96875 159.886719 137.722656 159.9375 137.484375 160.035156 C 137.246094 160.132812 137.039062 160.273438 136.855469 160.453125 C 136.675781 160.636719 136.535156 160.84375 136.4375 161.082031 C 136.339844 161.320312 136.289062 161.566406 136.289062 161.824219 L 136.289062 204.679688 L 132.089844 204.679688 C 131.785156 204.679688 131.484375 204.710938 131.183594 204.769531 C 130.882812 204.828125 130.59375 204.917969 130.3125 205.035156 C 130.03125 205.152344 129.761719 205.292969 129.507812 205.464844 C 129.253906 205.632812 129.019531 205.824219 128.804688 206.039062 C 128.589844 206.257812 128.394531 206.492188 128.226562 206.746094 C 128.054688 207 127.914062 207.265625 127.796875 207.546875 C 127.679688 207.828125 127.589844 208.121094 127.53125 208.417969 C 127.472656 208.71875 127.441406 209.019531 127.441406 209.324219 L 127.441406 230.628906 L 126.699219 230.628906 C 126.394531 230.628906 126.089844 230.660156 125.792969 230.71875 C 125.492188 230.777344 125.203125 230.867188 124.921875 230.984375 C 124.636719 231.101562 124.371094 231.242188 124.117188 231.414062 C 123.863281 231.582031 123.628906 231.773438 123.414062 231.992188 C 123.195312 232.207031 123.003906 232.441406 122.835938 232.695312 C 122.664062 232.949219 122.519531 233.214844 122.40625 233.496094 C 122.289062 233.777344 122.199219 234.070312 122.140625 234.367188 C 122.082031 234.667969 122.050781 234.96875 122.050781 235.273438 C 122.050781 235.273438 122.050781 235.445312 122.050781 235.539062 L 127.410156 275.359375 C 127.421875 275.660156 127.460938 275.953125 127.527344 276.242188 C 127.597656 276.53125 127.691406 276.8125 127.8125 277.085938 C 127.933594 277.359375 128.082031 277.617188 128.253906 277.859375 C 128.425781 278.105469 128.617188 278.328125 128.832031 278.535156 C 129.046875 278.742188 129.277344 278.925781 129.527344 279.089844 C 129.78125 279.25 130.042969 279.386719 130.320312 279.5 C 130.597656 279.609375 130.878906 279.695312 131.171875 279.75 C 131.464844 279.808594 131.761719 279.835938 132.058594 279.835938 L 228.414062 279.835938 C 228.710938 279.835938 229.003906 279.808594 229.296875 279.75 C 229.589844 279.695312 229.875 279.609375 230.148438 279.5 C 230.425781 279.390625 230.6875 279.253906 230.9375 279.09375 C 231.1875 278.929688 231.421875 278.746094 231.636719 278.542969 C 231.851562 278.335938 232.042969 278.109375 232.214844 277.867188 C 232.386719 277.625 232.535156 277.367188 232.65625 277.097656 C 232.777344 276.824219 232.871094 276.546875 232.941406 276.257812 C 233.007812 275.964844 233.050781 275.671875 233.0625 275.375 L 239.738281 229.253906 C 239.746094 229.160156 239.746094 229.066406 239.738281 228.972656 C 239.738281 228.667969 239.707031 228.371094 239.644531 228.070312 C 239.582031 227.773438 239.492188 227.484375 239.375 227.207031 C 239.257812 226.925781 239.113281 226.660156 238.945312 226.40625 C 238.773438 226.15625 238.582031 225.921875 238.367188 225.710938 C 238.152344 225.496094 237.917969 225.304688 237.664062 225.136719 C 237.410156 224.96875 237.144531 224.824219 236.863281 224.710938 C 236.582031 224.59375 236.292969 224.507812 235.992188 224.449219 C 235.695312 224.390625 235.394531 224.359375 235.089844 224.359375 Z M 131.285156 230.628906 L 131.285156 209.292969 C 131.289062 209.089844 131.363281 208.917969 131.507812 208.773438 C 131.652344 208.628906 131.824219 208.554688 132.027344 208.550781 L 136.226562 208.550781 L 136.226562 230.628906 Z M 188.023438 225.273438 L 184.722656 230.628906 L 140.164062 230.628906 L 140.164062 163.757812 L 196.015625 163.757812 L 196.015625 186.6875 C 196.023438 186.9375 196.078125 187.171875 196.175781 187.398438 C 196.273438 187.628906 196.414062 187.828125 196.589844 188 C 196.765625 188.175781 196.964844 188.3125 197.195312 188.410156 C 197.421875 188.503906 197.660156 188.558594 197.90625 188.5625 L 220.339844 188.5625 L 220.339844 224.359375 L 189.742188 224.359375 C 189.40625 224.355469 189.089844 224.4375 188.792969 224.601562 C 188.5 224.761719 188.261719 224.988281 188.082031 225.273438 Z M 224.246094 224.359375 L 224.246094 208.550781 L 228.445312 208.550781 C 228.648438 208.554688 228.820312 208.628906 228.964844 208.773438 C 229.109375 208.917969 229.183594 209.089844 229.1875 209.292969 L 229.1875 224.359375 Z M 224.246094 224.359375 " fill-opacity="1" fill-rule="nonzero"/></g><path fill="#000000" d="M 152.496094 180.496094 L 182.800781 180.496094 C 183.058594 180.496094 183.304688 180.445312 183.542969 180.347656 C 183.777344 180.25 183.988281 180.109375 184.171875 179.929688 C 184.351562 179.746094 184.492188 179.539062 184.589844 179.300781 C 184.6875 179.0625 184.738281 178.816406 184.738281 178.5625 C 184.738281 178.304688 184.6875 178.058594 184.589844 177.820312 C 184.492188 177.582031 184.351562 177.375 184.171875 177.191406 C 183.988281 177.011719 183.777344 176.871094 183.542969 176.773438 C 183.304688 176.675781 183.058594 176.625 182.800781 176.625 L 152.496094 176.625 C 152.238281 176.625 151.992188 176.675781 151.753906 176.773438 C 151.515625 176.871094 151.308594 177.011719 151.125 177.191406 C 150.945312 177.375 150.804688 177.582031 150.707031 177.820312 C 150.609375 178.058594 150.558594 178.304688 150.558594 178.5625 C 150.558594 178.816406 150.609375 179.0625 150.707031 179.300781 C 150.804688 179.539062 150.945312 179.746094 151.125 179.929688 C 151.308594 180.109375 151.515625 180.25 151.753906 180.347656 C 151.992188 180.445312 152.238281 180.496094 152.496094 180.496094 Z M 152.496094 180.496094 " fill-opacity="1" fill-rule="nonzero"/><path fill="#000000" d="M 163.21875 215.085938 L 152.496094 215.085938 C 152.238281 215.085938 151.992188 215.132812 151.753906 215.230469 C 151.515625 215.332031 151.308594 215.46875 151.125 215.652344 C 150.945312 215.832031 150.804688 216.042969 150.707031 216.28125 C 150.609375 216.515625 150.558594 216.765625 150.558594 217.019531 C 150.558594 217.277344 150.609375 217.523438 150.707031 217.761719 C 150.804688 218 150.945312 218.207031 151.125 218.390625 C 151.308594 218.570312 151.515625 218.710938 151.753906 218.808594 C 151.992188 218.90625 152.238281 218.957031 152.496094 218.957031 L 163.21875 218.957031 C 163.472656 218.957031 163.722656 218.90625 163.957031 218.808594 C 164.195312 218.710938 164.40625 218.570312 164.585938 218.390625 C 164.769531 218.207031 164.90625 218 165.007812 217.761719 C 165.105469 217.523438 165.152344 217.277344 165.152344 217.019531 C 165.152344 216.765625 165.105469 216.515625 165.007812 216.28125 C 164.90625 216.042969 164.769531 215.832031 164.585938 215.652344 C 164.40625 215.46875 164.195312 215.332031 163.957031 215.230469 C 163.722656 215.132812 163.472656 215.085938 163.21875 215.085938 Z M 163.21875 215.085938 " fill-opacity="1" fill-rule="nonzero"/><path fill="#000000" d="M 186.875 215.085938 L 172.449219 215.085938 C 172.195312 215.085938 171.945312 215.132812 171.710938 215.230469 C 171.472656 215.332031 171.261719 215.46875 171.082031 215.652344 C 170.898438 215.832031 170.761719 216.042969 170.660156 216.28125 C 170.5625 216.515625 170.515625 216.765625 170.515625 217.019531 C 170.515625 217.277344 170.5625 217.523438 170.660156 217.761719 C 170.761719 218 170.898438 218.207031 171.082031 218.390625 C 171.261719 218.570312 171.472656 218.710938 171.710938 218.808594 C 171.945312 218.90625 172.195312 218.957031 172.449219 218.957031 L 186.875 218.957031 C 187.132812 218.957031 187.378906 218.90625 187.617188 218.808594 C 187.855469 218.710938 188.0625 218.570312 188.246094 218.390625 C 188.425781 218.207031 188.566406 218 188.664062 217.761719 C 188.761719 217.523438 188.8125 217.277344 188.8125 217.019531 C 188.8125 216.765625 188.761719 216.515625 188.664062 216.28125 C 188.566406 216.042969 188.425781 215.832031 188.246094 215.652344 C 188.0625 215.46875 187.855469 215.332031 187.617188 215.230469 C 187.378906 215.132812 187.132812 215.085938 186.875 215.085938 Z M 186.875 215.085938 " fill-opacity="1" fill-rule="nonzero"/><path fill="#000000" d="M 152.496094 189.199219 L 186.765625 189.199219 C 187.023438 189.199219 187.269531 189.148438 187.507812 189.050781 C 187.746094 188.953125 187.953125 188.8125 188.136719 188.628906 C 188.316406 188.449219 188.457031 188.238281 188.554688 188.003906 C 188.65625 187.765625 188.703125 187.519531 188.703125 187.261719 C 188.703125 187.003906 188.65625 186.757812 188.554688 186.519531 C 188.457031 186.285156 188.316406 186.074219 188.136719 185.894531 C 187.953125 185.710938 187.746094 185.570312 187.507812 185.472656 C 187.269531 185.375 187.023438 185.328125 186.765625 185.328125 L 152.496094 185.328125 C 152.238281 185.328125 151.992188 185.375 151.753906 185.472656 C 151.515625 185.570312 151.308594 185.710938 151.125 185.894531 C 150.945312 186.074219 150.804688 186.285156 150.707031 186.519531 C 150.609375 186.757812 150.558594 187.003906 150.558594 187.261719 C 150.558594 187.519531 150.609375 187.765625 150.707031 188.003906 C 150.804688 188.238281 150.945312 188.449219 151.125 188.628906 C 151.308594 188.8125 151.515625 188.953125 151.753906 189.050781 C 151.992188 189.148438 152.238281 189.199219 152.496094 189.199219 Z M 152.496094 189.199219 " fill-opacity="1" fill-rule="nonzero"/><path fill="#000000" d="M 199.457031 205.394531 L 152.496094 205.394531 C 152.238281 205.394531 151.992188 205.441406 151.753906 205.539062 C 151.515625 205.636719 151.308594 205.777344 151.125 205.960938 C 150.945312 206.140625 150.804688 206.351562 150.707031 206.585938 C 150.609375 206.824219 150.558594 207.070312 150.558594 207.328125 C 150.558594 207.585938 150.609375 207.832031 150.707031 208.070312 C 150.804688 208.304688 150.945312 208.515625 151.125 208.695312 C 151.308594 208.878906 151.515625 209.019531 151.753906 209.117188 C 151.992188 209.214844 152.238281 209.261719 152.496094 209.261719 L 199.457031 209.261719 C 199.710938 209.261719 199.960938 209.214844 200.195312 209.117188 C 200.433594 209.019531 200.644531 208.878906 200.824219 208.695312 C 201.007812 208.515625 201.148438 208.304688 201.246094 208.070312 C 201.34375 207.832031 201.394531 207.585938 201.394531 207.328125 C 201.394531 207.070312 201.34375 206.824219 201.246094 206.585938 C 201.148438 206.351562 201.007812 206.140625 200.824219 205.960938 C 200.644531 205.777344 200.433594 205.636719 200.195312 205.539062 C 199.960938 205.441406 199.710938 205.394531 199.457031 205.394531 Z M 199.457031 205.394531 " fill-opacity="1" fill-rule="nonzero"/><path fill="#000000" d="M 209.757812 195.46875 L 152.433594 195.46875 C 152.175781 195.46875 151.929688 195.515625 151.691406 195.613281 C 151.453125 195.710938 151.246094 195.851562 151.0625 196.035156 C 150.878906 196.214844 150.738281 196.425781 150.640625 196.664062 C 150.542969 196.898438 150.492188 197.148438 150.492188 197.402344 C 150.492188 197.660156 150.542969 197.90625 150.640625 198.144531 C 150.738281 198.382812 150.878906 198.589844 151.0625 198.773438 C 151.246094 198.953125 151.453125 199.09375 151.691406 199.191406 C 151.929688 199.289062 152.175781 199.339844 152.433594 199.339844 L 209.757812 199.339844 C 210.015625 199.339844 210.261719 199.289062 210.5 199.191406 C 210.738281 199.09375 210.945312 198.953125 211.128906 198.773438 C 211.308594 198.589844 211.449219 198.382812 211.546875 198.144531 C 211.648438 197.90625 211.695312 197.660156 211.695312 197.402344 C 211.695312 197.148438 211.648438 196.898438 211.546875 196.664062 C 211.449219 196.425781 211.308594 196.214844 211.128906 196.035156 C 210.945312 195.851562 210.738281 195.714844 210.5 195.617188 C 210.261719 195.515625 210.015625 195.46875 209.757812 195.46875 Z M 209.757812 195.46875 " fill-opacity="1" fill-rule="nonzero"/><g clip-path="url(#a42f65bd69)"><g clip-path="url(#968a3ceae2)"><g clip-path="url(#3a8e912c34)"><g clip-path="url(#a117d6110f)"><path fill="#000000" d="M 262.035156 125.84375 C 262.046875 125.832031 262.054688 125.820312 262.0625 125.808594 L 241.746094 199.902344 C 241.628906 200.324219 241.296875 200.644531 240.886719 200.753906 C 240.8125 200.773438 240.738281 200.789062 240.660156 200.792969 C 240.144531 200.828125 239.664062 200.535156 239.460938 200.0625 L 224.007812 164.222656 Z M 186.125 143.945312 C 185.628906 144.078125 185.269531 144.507812 185.230469 145.019531 C 185.1875 145.53125 185.472656 146.011719 185.945312 146.222656 L 222.371094 162.433594 L 260.289062 124.160156 Z M 186.125 143.945312 " fill-opacity="1" fill-rule="nonzero"/></g></g></g></g><g fill="#013b74" fill-opacity="1"><g transform="translate(90.350696, 169.994435)"><g><path d="M -6.671875 -10.671875 C -8.148438 -8.679688 -9.238281 -7.875 -9.9375 -8.25 C -10.445312 -8.519531 -10.832031 -9.195312 -11.09375 -10.28125 C -11.351562 -11.375 -11.632812 -12.476562 -11.9375 -13.59375 C -14.257812 -14.851562 -17.050781 -15.910156 -20.3125 -16.765625 C -23.570312 -17.628906 -26.078125 -18.335938 -27.828125 -18.890625 C -29.585938 -19.441406 -31.125 -20.070312 -32.4375 -20.78125 C -33.75 -21.5 -34.46875 -22.148438 -34.59375 -22.734375 C -34.726562 -23.328125 -34.585938 -24.007812 -34.171875 -24.78125 C -33.753906 -25.5625 -33.378906 -26.007812 -33.046875 -26.125 C -32.710938 -26.25 -32.367188 -26.265625 -32.015625 -26.171875 C -31.660156 -26.085938 -31.300781 -25.957031 -30.9375 -25.78125 C -30.582031 -25.613281 -30.21875 -25.507812 -29.84375 -25.46875 C -29.007812 -25.257812 -28.316406 -25.660156 -27.765625 -26.671875 C -26.390625 -29.273438 -25.203125 -31.984375 -24.203125 -34.796875 C -23.210938 -37.617188 -22.238281 -40.421875 -21.28125 -43.203125 C -19.375 -48.773438 -17.859375 -52.59375 -16.734375 -54.65625 C -15.609375 -56.726562 -14.664062 -58.332031 -13.90625 -59.46875 C -13.144531 -59.113281 -12.460938 -58.847656 -11.859375 -58.671875 C -11.253906 -58.503906 -10.78125 -58.320312 -10.4375 -58.125 C -9.769531 -57.769531 -9.878906 -57.003906 -10.765625 -55.828125 C -20.984375 -35.179688 -24.957031 -24.242188 -22.6875 -23.015625 C -20.164062 -21.648438 -17.910156 -20.65625 -15.921875 -20.03125 C -13.929688 -19.40625 -12.65625 -19.050781 -12.09375 -18.96875 C -11.539062 -18.882812 -11.203125 -18.960938 -11.078125 -19.203125 C -9.878906 -21.410156 -8.859375 -23.75 -8.015625 -26.21875 C -7.179688 -28.695312 -6.375 -31.1875 -5.59375 -33.6875 C -4.8125 -36.195312 -3.992188 -38.695312 -3.140625 -41.1875 C -2.296875 -43.6875 -1.28125 -46.039062 -0.09375 -48.25 C -0.0703125 -48.28125 0.0820312 -48.21875 0.375 -48.0625 C 0.664062 -47.90625 0.976562 -47.71875 1.3125 -47.5 C 2.164062 -46.863281 2.625 -46.609375 2.6875 -46.734375 C 2.726562 -44.566406 1.851562 -41.140625 0.0625 -36.453125 C -0.695312 -34.410156 -1.492188 -32.335938 -2.328125 -30.234375 C -3.160156 -28.140625 -3.894531 -26.1875 -4.53125 -24.375 C -6.0625 -20.257812 -6.550781 -17.644531 -6 -16.53125 L 5.046875 -9.71875 C 5.242188 -9.070312 5.195312 -8.476562 4.90625 -7.9375 L 3.546875 -5.875 C 3.441406 -5.6875 3.335938 -5.492188 3.234375 -5.296875 Z M -6.671875 -10.671875 "/></g></g></g><g fill="#013b74" fill-opacity="1"><g transform="translate(117.230734, 127.278243)"><g><path d="M -16.171875 -27.59375 C -10.003906 -22.113281 -2.992188 -15.632812 4.859375 -8.15625 C 5.628906 -7 5.351562 -5.773438 4.03125 -4.484375 C 3.6875 -4.140625 3.257812 -3.859375 2.75 -3.640625 C 2.25 -3.429688 1.828125 -3.40625 1.484375 -3.5625 L -19.140625 -24.6875 Z M -26.84375 -29.734375 C -27.914062 -30.835938 -27.800781 -32.019531 -26.5 -33.28125 C -25.65625 -34.113281 -24.773438 -34.597656 -23.859375 -34.734375 C -23.441406 -34.484375 -23.070312 -34.191406 -22.75 -33.859375 C -22.425781 -33.535156 -22.234375 -33.085938 -22.171875 -32.515625 C -22.117188 -31.960938 -22.34375 -31.4375 -22.84375 -30.9375 C -23.351562 -30.445312 -23.972656 -30.070312 -24.703125 -29.8125 C -25.429688 -29.5625 -26.144531 -29.535156 -26.84375 -29.734375 Z M -26.84375 -29.734375 "/></g></g></g><g fill="#013b74" fill-opacity="1"><g transform="translate(129.56698, 115.925222)"><g><path d="M -12.359375 -22.625 C -13.804688 -24.519531 -15.101562 -26.203125 -16.25 -27.671875 C -17.40625 -29.148438 -18.253906 -30.25 -18.796875 -30.96875 C -19.335938 -31.695312 -20.914062 -33.296875 -23.53125 -35.765625 C -23.507812 -36.429688 -23.484375 -37.066406 -23.453125 -37.671875 C -23.429688 -38.273438 -23.140625 -38.78125 -22.578125 -39.1875 C -21.316406 -40.070312 -16.585938 -35.460938 -8.390625 -25.359375 C -3.679688 -19.472656 0.84375 -13.457031 5.1875 -7.3125 C 6.351562 -5.664062 5.78125 -4.023438 3.46875 -2.390625 L 3.015625 -2.140625 C 1.691406 -4.015625 -0.0507812 -6.363281 -2.21875 -9.1875 C -4.382812 -12.019531 -6.253906 -14.492188 -7.828125 -16.609375 C -9.410156 -18.734375 -10.921875 -20.738281 -12.359375 -22.625 Z M -12.359375 -22.625 "/></g></g></g><g fill="#013b74" fill-opacity="1"><g transform="translate(141.584158, 106.109126)"><g><path d="M 12.703125 -9.625 C 16.328125 -10.96875 21.1875 -14.640625 27.28125 -20.640625 C 27.726562 -20.804688 28.160156 -20.785156 28.578125 -20.578125 C 28.992188 -20.378906 29.273438 -20.070312 29.421875 -19.65625 C 28.796875 -16.238281 26.441406 -12.882812 22.359375 -9.59375 C 18.273438 -6.3125 14.015625 -4.429688 9.578125 -3.953125 C 4.554688 -3.460938 0.816406 -5.019531 -1.640625 -8.625 C -2.003906 -9.375 -2.425781 -10.40625 -2.90625 -11.71875 C -3.394531 -13.039062 -3.703125 -14.910156 -3.828125 -17.328125 C -3.953125 -19.753906 -3.546875 -22.242188 -2.609375 -24.796875 C -1.679688 -27.347656 -0.3125 -29.59375 1.5 -31.53125 C 3.320312 -33.46875 5.492188 -34.898438 8.015625 -35.828125 C 10.410156 -36.710938 13.398438 -36.875 16.984375 -36.3125 C 18.679688 -36.050781 20.125 -35.578125 21.3125 -34.890625 C 22.507812 -34.210938 23.296875 -33.359375 23.671875 -32.328125 C 23.785156 -32.035156 23.875 -31.734375 23.9375 -31.421875 C 24.769531 -28.878906 24.140625 -26.84375 22.046875 -25.3125 C 21.117188 -24.632812 19.972656 -24.046875 18.609375 -23.546875 L 9.546875 -20.625 C 6.578125 -19.53125 4.546875 -18.050781 3.453125 -16.1875 C 2.796875 -15.15625 2.539062 -13.867188 2.6875 -12.328125 C 5.101562 -8.953125 8.441406 -8.050781 12.703125 -9.625 Z M 16.6875 -32.828125 C 15.519531 -33.148438 14.382812 -33.269531 13.28125 -33.1875 C 12.175781 -33.113281 11.296875 -32.953125 10.640625 -32.703125 C 9.984375 -32.460938 8.988281 -31.851562 7.65625 -30.875 C 6.332031 -29.894531 5.195312 -28.925781 4.25 -27.96875 C 1.882812 -25.582031 0.96875 -23.664062 1.5 -22.21875 C 4.90625 -23.15625 7.429688 -23.929688 9.078125 -24.546875 C 13.660156 -26.234375 16.617188 -27.765625 17.953125 -29.140625 C 18.785156 -29.921875 19.085938 -30.625 18.859375 -31.25 C 18.578125 -31.988281 17.851562 -32.515625 16.6875 -32.828125 Z M 16.6875 -32.828125 "/></g></g></g><g fill="#013b74" fill-opacity="1"><g transform="translate(178.976944, 93.061306)"><g><path d="M 33.1875 -52.90625 C 33.175781 -48.675781 33.039062 -44.546875 32.78125 -40.515625 C 32.519531 -36.492188 32.285156 -32.554688 32.078125 -28.703125 C 31.867188 -24.859375 31.753906 -20.765625 31.734375 -16.421875 C 31.722656 -12.085938 32.019531 -7.5 32.625 -2.65625 C 32.613281 -1.644531 32.421875 -0.921875 32.046875 -0.484375 C 31.679688 -0.046875 31.054688 0.164062 30.171875 0.15625 C 28.097656 0.15625 27.066406 -1.554688 27.078125 -4.984375 L 27.09375 -7.171875 C 20.820312 -2.523438 15.53125 -0.210938 11.21875 -0.234375 C 9.507812 -0.234375 7.765625 -0.648438 5.984375 -1.484375 C 4.203125 -2.328125 2.519531 -4.035156 0.9375 -6.609375 C 0.726562 -7.660156 0.625 -8.734375 0.625 -9.828125 C 0.625 -10.929688 0.832031 -12.265625 1.25 -13.828125 C 1.675781 -15.390625 2.539062 -17.003906 3.84375 -18.671875 C 5.15625 -20.335938 6.738281 -21.804688 8.59375 -23.078125 C 12.65625 -25.796875 17.039062 -27.148438 21.75 -27.140625 C 23.769531 -27.128906 25.703125 -26.8125 27.546875 -26.1875 C 27.554688 -26.976562 27.617188 -28.363281 27.734375 -30.34375 C 27.847656 -32.320312 27.976562 -34.410156 28.125 -36.609375 C 28.394531 -42.335938 28.578125 -45.71875 28.671875 -46.75 C 28.765625 -47.78125 28.882812 -48.660156 29.03125 -49.390625 C 29.1875 -50.117188 29.425781 -50.75 29.75 -51.28125 C 30.40625 -52.375 31.550781 -52.914062 33.1875 -52.90625 Z M 5.4375 -10.34375 C 5.425781 -6.875 6.675781 -5.132812 9.1875 -5.125 C 9.582031 -5.125 10.023438 -5.164062 10.515625 -5.25 C 12.316406 -5.238281 14.539062 -5.753906 17.1875 -6.796875 C 22.207031 -8.773438 25.269531 -10.488281 26.375 -11.9375 L 26.40625 -20.71875 C 26.414062 -22.257812 25.164062 -23.03125 22.65625 -23.03125 C 22.351562 -23.070312 21.945312 -23.09375 21.4375 -23.09375 C 20.925781 -23.101562 20.144531 -23 19.09375 -22.78125 C 18.039062 -22.5625 16.847656 -22.164062 15.515625 -21.59375 C 14.191406 -21.03125 12.890625 -20.335938 11.609375 -19.515625 C 8.921875 -17.710938 7.070312 -15.601562 6.0625 -13.1875 C 5.644531 -12.257812 5.4375 -11.3125 5.4375 -10.34375 Z M 5.4375 -10.34375 "/></g></g></g><g fill="#013b74" fill-opacity="1"><g transform="translate(216.686647, 93.495204)"><g><path d="M 40.53125 -10.359375 C 39.269531 -12.265625 37.28125 -13.734375 34.5625 -14.765625 C 32.019531 -15.722656 29.476562 -16.144531 26.9375 -16.03125 C 22.15625 -15.863281 18.488281 -14.71875 15.9375 -12.59375 C 14.8125 -11.601562 13.984375 -10.410156 13.453125 -9.015625 C 13.359375 -8.773438 13.097656 -8.085938 12.671875 -6.953125 C 12.242188 -5.816406 11.867188 -4.210938 11.546875 -2.140625 C 11.234375 -0.0664062 10.703125 1.945312 9.953125 3.90625 C 9.066406 3.632812 8.328125 3.476562 7.734375 3.4375 C 7.140625 3.394531 6.65625 3.300781 6.28125 3.15625 C 5.914062 3.019531 5.660156 2.734375 5.515625 2.296875 C 5.367188 1.867188 5.3125 1.125 5.34375 0.0625 C 5.394531 -0.207031 5.578125 -0.9375 5.890625 -2.125 C 6.210938 -3.320312 6.59375 -4.78125 7.03125 -6.5 C 7.46875 -8.21875 7.941406 -10.097656 8.453125 -12.140625 C 8.972656 -14.179688 9.492188 -16.1875 10.015625 -18.15625 C 11.117188 -22.457031 11.914062 -25.617188 12.40625 -27.640625 C 12.789062 -28.628906 13.703125 -28.847656 15.140625 -28.296875 C 16.003906 -27.960938 16.546875 -27.34375 16.765625 -26.4375 C 16.984375 -25.53125 17.0625 -24.554688 17 -23.515625 C 16.9375 -22.484375 16.78125 -21.492188 16.53125 -20.546875 C 16.28125 -19.609375 16.132812 -18.941406 16.09375 -18.546875 C 23.363281 -21.328125 31.03125 -21.179688 39.09375 -18.109375 C 40 -17.765625 40.9375 -17.394531 41.90625 -17 C 42.175781 -16.925781 42.492188 -16.816406 42.859375 -16.671875 C 43.234375 -16.535156 43.515625 -16.160156 43.703125 -15.546875 C 43.929688 -14.773438 43.890625 -13.984375 43.578125 -13.171875 C 42.796875 -11.117188 41.78125 -10.179688 40.53125 -10.359375 Z M 40.53125 -10.359375 "/></g></g></g><g fill="#013b74" fill-opacity="1"><g transform="translate(254.02224, 108.180903)"><g><path d="M 10.96875 -6.984375 C 14.457031 -10.828125 18.929688 -12.421875 24.390625 -11.765625 C 28.722656 -11.222656 32.921875 -9.457031 36.984375 -6.46875 C 37.171875 -6.300781 37.625 -5.890625 38.34375 -5.234375 C 39.0625 -4.585938 39.832031 -3.507812 40.65625 -2 C 42.507812 1.34375 42.875 4.613281 41.75 7.8125 C 41.3125 9.070312 40.800781 10.019531 40.21875 10.65625 C 39.644531 11.300781 39.222656 11.738281 38.953125 11.96875 C 35.265625 16.039062 30.8125 17.847656 25.59375 17.390625 C 20.757812 16.941406 16.191406 14.765625 11.890625 10.859375 C 8.796875 8.054688 7.109375 5.21875 6.828125 2.34375 C 6.546875 -0.519531 7.925781 -3.628906 10.96875 -6.984375 Z M 13.28125 -2.75 C 11.445312 -0.726562 10.738281 1.128906 11.15625 2.828125 C 11.5 4.078125 12.632812 5.570312 14.5625 7.3125 C 16.488281 9.0625 18.316406 10.453125 20.046875 11.484375 C 21.773438 12.523438 23.539062 13.207031 25.34375 13.53125 C 29.207031 14.175781 32.632812 12.847656 35.625 9.546875 C 37.394531 7.597656 38.320312 5.535156 38.40625 3.359375 C 38.46875 0.972656 37.570312 -1.0625 35.71875 -2.75 C 34.226562 -3.65625 32.722656 -4.5625 31.203125 -5.46875 C 29.691406 -6.382812 28.023438 -6.984375 26.203125 -7.265625 C 22.253906 -7.921875 17.945312 -6.414062 13.28125 -2.75 Z M 13.28125 -2.75 "/></g></g></g><g fill="#013b74" fill-opacity="1"><g transform="translate(283.875024, 136.003361)"><g><path d="M 27.328125 -4.46875 C 31.835938 -0.03125 35.054688 4.144531 36.984375 8.0625 C 39.453125 13.03125 39.796875 16.988281 38.015625 19.9375 C 37.160156 21.289062 36.023438 22.316406 34.609375 23.015625 C 32.640625 23.992188 30.300781 24.378906 27.59375 24.171875 C 24.882812 23.960938 22.171875 23.253906 19.453125 22.046875 C 13.203125 19.203125 7.90625 14.601562 3.5625 8.25 C 3.132812 8.46875 2.441406 8.828125 1.484375 9.328125 C 0.523438 9.828125 -0.535156 10.375 -1.703125 10.96875 C -2.878906 11.570312 -4.128906 12.21875 -5.453125 12.90625 C -6.785156 13.59375 -8.054688 14.265625 -9.265625 14.921875 C -12.242188 16.523438 -13.929688 17.460938 -14.328125 17.734375 C -14.734375 18.015625 -15.078125 18.226562 -15.359375 18.375 C -16.347656 18.863281 -17.242188 18.910156 -18.046875 18.515625 C -18.847656 18.128906 -19.503906 17.421875 -20.015625 16.390625 C -20.109375 16.203125 -20.207031 16.007812 -20.3125 15.8125 L 26.78125 -8.6875 C 27.46875 -8.59375 27.941406 -8.238281 28.203125 -7.625 C 28.460938 -7.007812 28.539062 -6.457031 28.4375 -5.96875 C 28.332031 -5.476562 27.960938 -4.976562 27.328125 -4.46875 Z M 33.8125 13.828125 C 33.832031 12.191406 33.476562 10.632812 32.75 9.15625 C 32.019531 7.675781 31.15625 6.273438 30.15625 4.953125 C 27.882812 1.953125 25.273438 0.203125 22.328125 -0.296875 C 20.953125 -0.492188 19.507812 -0.222656 18 0.515625 C 17.84375 0.597656 17.691406 0.675781 17.546875 0.75 L 7.3125 5.8125 C 13.132812 13.03125 18.507812 17.546875 23.4375 19.359375 C 26.257812 20.398438 28.65625 20.4375 30.625 19.46875 C 32.71875 18.425781 33.78125 16.546875 33.8125 13.828125 Z M 33.8125 13.828125 "/></g></g></g></svg>